#!OML:ASF F:\VICON\USERDATA\INSTALL\rory3\rory3.ASF
:FULLY-SPECIFIED
:DEGREES
161
root -1.07397 16.4058 26.5708 -156.404 2.00168 -178.676
lowerback -1.40738 -0.84822 0.238731
upperback -7.30133 -0.596954 -0.11782
thorax -6.80414 -0.079206 -0.257335
lowerneck -24.9591 0.739991 1.65173
upperneck 33.4249 1.92786 0.294797
head 16.1448 1.61888 0.4071
rclavicle -4.32357e-015 7.95139e-016
rhumerus -32.4127 30.7837 -93.9885
rradius 35.5462
rwrist 19.9811
rhand -11.3804 29.542
rfingers 7.12502
rthumb 14.654 0.0798517
lclavicle -4.32357e-015 7.95139e-016
lhumerus -25.2704 -60.1915 95.3274
lradius 32.6224
lwrist -41.8195
lhand -12.2132 7.92689
lfingers 7.12502
lthumb 13.8515 37.4457
rfemur -65.9944 6.28562 19.7071
rtibia 41.299
rfoot -12.5503 -22.303
rtoes 16.1353
lfemur -24.7954 -3.14148 -23.4483
ltibia 35.7888
lfoot -40.5505 19.1435
ltoes -20.5031
162
root -1.0697 16.3873 26.428 -156.37 1.83716 -179.209
lowerback -1.40593 -1.01001 -0.335244
upperback -7.4522 -0.812968 -0.255493
thorax -6.9605 -0.145199 -0.0714143
lowerneck -25.0194 0.78023 1.63141
upperneck 33.1983 1.86448 0.497129
head 16.0446 1.60541 0.478077
rclavicle 0 6.36111e-015
rhumerus -30.7927 29.0571 -91.5412
rradius 32.1662
rwrist 21.8479
rhand -18.5059 30.4301
rfingers 7.12502
rthumb 7.78211 0.59333
lclavicle 0 6.36111e-015
lhumerus -21.4804 -59.0171 91.658
lradius 30.3339
lwrist -42.1429
lhand -10.8431 8.85997
lfingers 7.12502
lthumb 15.1716 38.2838
rfemur -66.9259 6.43064 18.4917
rtibia 40.6902
rfoot -11.6848 -23.0981
rtoes 17.758
lfemur -23.7594 -3.27767 -23.9934
ltibia 34.7719
lfoot -40.1073 19.3528
ltoes -21.0067
163
root -1.06808 16.362 26.285 -156.434 1.71138 -179.784
lowerback -1.28301 -1.16724 -0.927425
upperback -7.48242 -1.0449 -0.388276
thorax -7.05428 -0.225541 0.132826
lowerneck -25.3791 0.827109 1.57083
upperneck 32.9391 1.7991 0.668397
head 15.9979 1.56779 0.541663
rclavicle -1.19271e-015 1.59028e-015
rhumerus -28.9656 27.0723 -88.7374
rradius 28.979
rwrist 23.9898
rhand -18.9783 29.8977
rfingers 7.12502
rthumb 7.32614 0.0444895
lclavicle -1.19271e-015 1.59028e-015
lhumerus -17.0875 -56.5381 87.3278
lradius 28.3775
lwrist -43.6188
lhand -8.28274 9.51642
lfingers 7.12502
lthumb 17.6368 38.7365
rfemur -67.7546 6.21957 17.6467
rtibia 40.3614
rfoot -10.376 -23.5394
rtoes 17.5228
lfemur -22.6245 -3.31112 -24.6139
ltibia 33.8032
lfoot -39.7168 19.5115
ltoes -21.8192
164
root -1.0613 16.3301 26.1348 -156.607 1.72166 -180.398
lowerback -1.15509 -1.26514 -1.7033
upperback -7.49927 -1.20475 -0.524703
thorax -7.13147 -0.258312 0.432764
lowerneck -25.678 0.764123 1.40103
upperneck 32.748 1.60693 0.929538
head 15.9681 1.48508 0.638352
rclavicle -7.55382e-015 -1.43125e-014
rhumerus -27.2293 24.4048 -85.6626
rradius 26.0309
rwrist 26.1651
rhand -18.6534 29.2358
rfingers 7.12502
rthumb 7.63971 -0.606165
lclavicle -7.55382e-015 -1.43125e-014
lhumerus -13.0088 -53.1716 83.308
lradius 26.5906
lwrist -45.8573
lhand -5.88423 10.1622
lfingers 7.12502
lthumb 19.9436 39.1588
rfemur -68.4311 5.86463 17.0739
rtibia 40.2843
rfoot -9.54093 -23.6271
rtoes 17.072
lfemur -21.3715 -3.51749 -25.2882
ltibia 32.9292
lfoot -39.7239 19.7522
ltoes -22.0894
165
root -1.05702 16.2852 25.9788 -156.814 1.90295 -181.081
lowerback -1.02759 -1.27106 -2.51126
upperback -7.58673 -1.23728 -0.764136
thorax -7.28874 -0.221264 0.63578
lowerneck -25.7163 0.658935 1.31983
upperneck 32.4912 1.36364 1.11222
head 15.8504 1.38687 0.672118
rclavicle 6.70898e-015 3.97569e-015
rhumerus -25.6852 20.734 -82.3686
rradius 23.2539
rwrist 28.9527
rhand -17.5313 28.6504
rfingers 7.12502
rthumb 8.72264 -1.14938
lclavicle 6.70898e-015 3.97569e-015
lhumerus -9.59284 -50.0257 79.9438
lradius 24.9561
lwrist -47.5653
lhand -3.73184 11.1185
lfingers 7.12502
lthumb 22.0114 39.886
rfemur -69.0261 5.27232 16.7706
rtibia 40.4457
rfoot -9.00545 -23.1553
rtoes 16.7094
lfemur -20.1141 -3.56814 -26.1268
ltibia 32.1436
lfoot -39.5415 20.0527
ltoes -22.5748
166
root -1.04856 16.2304 25.8161 -156.985 2.13683 -181.656
lowerback -0.990824 -1.2454 -3.26859
upperback -7.73766 -1.21136 -0.971367
thorax -7.46592 -0.149114 0.838312
lowerneck -25.5606 0.559251 1.21936
upperneck 32.2021 1.15299 1.30715
head 15.675 1.30621 0.719507
rclavicle 2.68359e-015 1.70955e-014
rhumerus -24.249 16.1131 -78.7627
rradius 20.6664
rwrist 32.6049
rhand -15.7848 27.9222
rfingers 7.12502
rthumb 10.4078 -1.80022
lclavicle 2.68359e-015 1.70955e-014
lhumerus -6.56138 -47.3004 77.0394
lradius 23.3824
lwrist -48.7403
lhand -1.90345 12.649
lfingers 7.12502
lthumb 23.766 41.1992
rfemur -69.6224 4.62031 16.8696
rtibia 40.8407
rfoot -7.41525 -22.409
rtoes 13.6673
lfemur -18.9143 -3.52391 -26.8547
ltibia 31.4582
lfoot -39.3426 20.1362
ltoes -22.5475
167
root -1.03797 16.1691 25.656 -157.256 2.28742 -182.258
lowerback -0.822844 -1.24035 -4.06305
upperback -7.75455 -1.23972 -1.14111
thorax -7.57269 -0.110719 1.10591
lowerneck -25.7651 0.505118 1.16401
upperneck 32.0321 1.01045 1.39942
head 15.6397 1.23867 0.734328
rclavicle -6.60959e-015 1.59028e-014
rhumerus -22.4916 10.5194 -74.7819
rradius 18.1136
rwrist 37.1964
rhand -15.2596 26.4696
rfingers 7.12502
rthumb 10.9144 -3.22676
lclavicle -6.60959e-015 1.59028e-014
lhumerus -3.35394 -44.6592 74.0738
lradius 22.0906
lwrist -49.7891
lhand -0.898523 14.6449
lfingers 7.12502
lthumb 24.7295 43.0665
rfemur -70.0824 3.88568 17.0732
rtibia 41.4551
rfoot -6.0297 -21.3324
rtoes 11.9187
lfemur -17.6563 -3.52368 -27.5586
ltibia 30.8838
lfoot -39.5538 19.8416
ltoes -22.0921
168
root -1.02894 16.11 25.4926 -157.587 2.31706 -182.816
lowerback -0.491771 -1.25188 -4.72656
upperback -7.77983 -1.30181 -1.27288
thorax -7.78422 -0.0947375 1.34399
lowerneck -26.1566 0.449929 1.09181
upperneck 32.0639 0.922032 1.39868
head 15.7425 1.18321 0.730471
rclavicle -2.08724e-015 -1.66979e-014
rhumerus -20.8875 3.74064 -70.4882
rradius 15.7007
rwrist 43.3764
rhand -15.4388 24.9287
rfingers 7.12502
rthumb 10.7415 -4.77669
lclavicle -2.08724e-015 -1.66979e-014
lhumerus -0.386497 -41.6708 71.3536
lradius 21.0521
lwrist -51.4735
lhand -0.381073 16.3651
lfingers 7.12502
lthumb 25.2253 44.7178
rfemur -70.4219 3.05042 17.4395
rtibia 42.2875
rfoot -4.3419 -19.9261
rtoes 10.6119
lfemur -16.405 -3.62904 -28.1844
ltibia 30.4451
lfoot -39.8026 19.8329
ltoes -22.0531
169
root -1.02321 16.0467 25.3176 -157.895 2.33807 -183.247
lowerback -0.216445 -1.26915 -5.2083
upperback -7.97093 -1.34612 -1.36672
thorax -8.14758 -0.0627216 1.51653
lowerneck -26.1373 0.372675 1.03946
upperneck 32.1468 0.861823 1.35052
head 15.7778 1.15039 0.709125
rclavicle 6.01324e-015 -5.96354e-015
rhumerus -19.8591 -5.37157 -65.5925
rradius 13.2894
rwrist 52.5925
rhand -15.9611 23.9773
rfingers 7.12502
rthumb 10.2377 -5.75355
lclavicle 6.01324e-015 -5.96354e-015
lhumerus 1.90831 -39.6445 69.0414
lradius 20.3227
lwrist -52.1945
lhand 0.366551 17.6594
lfingers 7.12502
lthumb 25.9414 45.9092
rfemur -70.7623 2.00364 18.2232
rtibia 43.3869
rfoot -2.05269 -18.0236
rtoes 7.45295
lfemur -15.1525 -3.83558 -28.708
ltibia 30.1639
lfoot -40.1649 19.7908
ltoes -21.6293
170
root -1.01604 15.9737 25.1331 -158.108 2.52446 -183.508
lowerback -0.288463 -1.25251 -5.6097
upperback -8.09825 -1.31502 -1.35877
thorax -8.24222 -0.00355779 1.74284
lowerneck -26.1464 0.325143 0.87274
upperneck 32.1796 0.889876 1.29211
head 15.7944 1.13305 0.719394
rclavicle 9.44227e-015 -1.23246e-014
rhumerus -19.3919 -19.5504 -59.2558
rradius 10.987
rwrist 67.127
rhand -16.5083 23.3669
rfingers 7.12502
rthumb 9.7098 -6.38926
lclavicle 9.44227e-015 -1.23246e-014
lhumerus 4.28934 -38.8508 66.4285
lradius 19.8985
lwrist -51.7582
lhand 1.09947 18.5923
lfingers 7.12502
lthumb 26.6431 46.7375
rfemur -71.1896 1.37531 19.0033
rtibia 44.7376
rfoot 0.0445537 -16.2375
rtoes 4.04726
lfemur -14.0625 -4.16745 -29.1123
ltibia 30.0626
lfoot -40.7074 19.8851
ltoes -21.361
